<?xml version="1.0" encoding="utf-8" standalone="no"?><!DOCTYPE svg PUBLIC "-//W3C//DTD SVG 20010904//EN" "http://www.w3.org/TR/2001/REC-SVG-20010904/DTD/svg10.dtd"><svg xmlns="http://www.w3.org/2000/svg" width="532" height="533" xmlns:xlink="http://www.w3.org/1999/xlink"><source><![CDATA[Note over User: 1. User Token or Key
User->>Service: HTTP Request
Note over Service: 2. Service Key
Service->>ark_auth: HTTP Request
Note over ark_auth: 3. Verify
ark_auth->>Service: HTTP Response
Note over Service: 4. Request Handler
Service->>User: HTTP Response
Note over User: 5. Response Handler]]></source><desc></desc><defs><marker viewBox="0 0 5 5" markerWidth="5" markerHeight="5" orient="auto" refX="5" refY="2.5" id="markerArrowBlock"><path d="M 0 0 L 5 2.5 L 0 5 z"></path></marker><marker viewBox="0 0 9.6 16" markerWidth="4" markerHeight="16" orient="auto" refX="9.6" refY="8" id="markerArrowOpen"><path d="M 9.6,8 1.92,16 0,13.7 5.76,8 0,2.286 1.92,0 9.6,8 z"></path></marker></defs><g class="title"></g><g class="actor"><rect x="81" y="20" width="58" height="38.5" style="stroke-width: 2;" stroke="#000000" fill="#ffffff"></rect><text x="91" y="45" style="font-size: 16px; font-family: Andale Mono, monospace;"><tspan x="91">User</tspan></text></g><g class="actor"><rect x="81" y="475" width="58" height="38.5" style="stroke-width: 2;" stroke="#000000" fill="#ffffff"></rect><text x="91" y="500" style="font-size: 16px; font-family: Andale Mono, monospace;"><tspan x="91">User</tspan></text></g><line x1="110" x2="110" y1="58.5" y2="475" style="stroke-width: 2;" stroke="#000000" fill="none"></line><g class="actor"><rect x="210.25" y="20" width="86.5" height="38.5" style="stroke-width: 2;" stroke="#000000" fill="#ffffff"></rect><text x="220.25" y="45" style="font-size: 16px; font-family: Andale Mono, monospace;"><tspan x="220.25">Service</tspan></text></g><g class="actor"><rect x="210.25" y="475" width="86.5" height="38.5" style="stroke-width: 2;" stroke="#000000" fill="#ffffff"></rect><text x="220.25" y="500" style="font-size: 16px; font-family: Andale Mono, monospace;"><tspan x="220.25">Service</tspan></text></g><line x1="253.5" x2="253.5" y1="58.5" y2="475" style="stroke-width: 2;" stroke="#000000" fill="none"></line><g class="actor"><rect x="349" y="20" width="96" height="38.5" style="stroke-width: 2;" stroke="#000000" fill="#ffffff"></rect><text x="359" y="45" style="font-size: 16px; font-family: Andale Mono, monospace;"><tspan x="359">ark_auth</tspan></text></g><g class="actor"><rect x="349" y="475" width="96" height="38.5" style="stroke-width: 2;" stroke="#000000" fill="#ffffff"></rect><text x="359" y="500" style="font-size: 16px; font-family: Andale Mono, monospace;"><tspan x="359">ark_auth</tspan></text></g><line x1="397" x2="397" y1="58.5" y2="475" style="stroke-width: 2;" stroke="#000000" fill="none"></line><g class="note"><rect x="10" y="78.5" width="200" height="28.5" style="stroke-width: 2;" stroke="#000000" fill="#ffffff"></rect><text x="15" y="98.5" style="font-size: 16px; font-family: Andale Mono, monospace;"><tspan x="15">1. User Token or Key</tspan></text></g><g class="signal"><text x="124.75" y="137.75" style="font-size: 16px; font-family: Andale Mono, monospace;"><tspan x="124.75">HTTP Request</tspan></text><line x1="110" x2="253.5" y1="145.5" y2="145.5" style="stroke-width: 2; marker-end: url(&quot;#markerArrowOpen&quot;);" stroke="#000000" fill="none"></line></g><g class="note"><rect x="182" y="165.5" width="143" height="28.5" style="stroke-width: 2;" stroke="#000000" fill="#ffffff"></rect><text x="187" y="185.5" style="font-size: 16px; font-family: Andale Mono, monospace;"><tspan x="187">2. Service Key</tspan></text></g><g class="signal"><text x="268.25" y="224.75" style="font-size: 16px; font-family: Andale Mono, monospace;"><tspan x="268.25">HTTP Request</tspan></text><line x1="253.5" x2="397" y1="232.5" y2="232.5" style="stroke-width: 2; marker-end: url(&quot;#markerArrowOpen&quot;);" stroke="#000000" fill="none"></line></g><g class="note"><rect x="349.25" y="252.5" width="95.5" height="28.5" style="stroke-width: 2;" stroke="#000000" fill="#ffffff"></rect><text x="354.25" y="272.5" style="font-size: 16px; font-family: Andale Mono, monospace;"><tspan x="354.25">3. Verify</tspan></text></g><g class="signal"><text x="263.5" y="311.75" style="font-size: 16px; font-family: Andale Mono, monospace;"><tspan x="263.5">HTTP Response</tspan></text><line x1="397" x2="253.5" y1="319.5" y2="319.5" style="stroke-width: 2; marker-end: url(&quot;#markerArrowOpen&quot;);" stroke="#000000" fill="none"></line></g><g class="note"><rect x="163" y="339.5" width="181" height="28.5" style="stroke-width: 2;" stroke="#000000" fill="#ffffff"></rect><text x="168" y="359.5" style="font-size: 16px; font-family: Andale Mono, monospace;"><tspan x="168">4. Request Handler</tspan></text></g><g class="signal"><text x="120" y="398.75" style="font-size: 16px; font-family: Andale Mono, monospace;"><tspan x="120">HTTP Response</tspan></text><line x1="253.5" x2="110" y1="406.5" y2="406.5" style="stroke-width: 2; marker-end: url(&quot;#markerArrowOpen&quot;);" stroke="#000000" fill="none"></line></g><g class="note"><rect x="14.75" y="426.5" width="190.5" height="28.5" style="stroke-width: 2;" stroke="#000000" fill="#ffffff"></rect><text x="19.75" y="446.5" style="font-size: 16px; font-family: Andale Mono, monospace;"><tspan x="19.75">5. Response Handler</tspan></text></g></svg>
